<svg id="Capa_1" enable-background="new 0 0 510.844 510.844" height="512" viewBox="0 0 510.844 510.844" width="512" xmlns="http://www.w3.org/2000/svg"><g><path d="m405.298 379.21c-4.142 0-7.5 3.358-7.5 7.5v67.731c0 19.816-16.122 35.938-35.938 35.938h-310.922c-19.816 0-35.938-16.122-35.938-35.938v-347.293c0-19.816 16.122-35.938 35.938-35.938h43.359c4.142 0 7.5-3.358 7.5-7.5s-3.358-7.5-7.5-7.5h-43.359c-28.087 0-50.938 22.851-50.938 50.938v347.292c0 28.087 22.851 50.938 50.938 50.938h310.921c28.087 0 50.938-22.851 50.938-50.938v-67.73c.001-4.142-3.357-7.5-7.499-7.5z"/><path d="m318.5 71.21h43.359c19.816 0 35.938 16.122 35.938 35.938v46.833c0 4.142 3.358 7.5 7.5 7.5s7.5-3.358 7.5-7.5v-46.833c0-28.087-22.851-50.938-50.938-50.938h-43.359c-4.142 0-7.5 3.358-7.5 7.5s3.358 7.5 7.5 7.5z"/><path d="m37.5 177.61c-4.142 0-7.5 3.358-7.5 7.5v269.331c0 11.545 9.393 20.938 20.938 20.938h310.921c11.545 0 20.938-9.393 20.938-20.938v-67.437c0-4.142-3.358-7.5-7.5-7.5s-7.5 3.358-7.5 7.5v67.437c0 3.274-2.664 5.938-5.938 5.938h-310.921c-3.274 0-5.938-2.664-5.938-5.938v-269.331c0-4.142-3.358-7.5-7.5-7.5z"/><path d="m96.208 86.21h-45.27c-11.545 0-20.938 9.393-20.938 20.938v45.999c0 4.142 3.358 7.5 7.5 7.5s7.5-3.358 7.5-7.5v-45.999c0-3.274 2.664-5.938 5.938-5.938h45.269c4.142 0 7.5-3.358 7.5-7.5s-3.357-7.5-7.499-7.5z"/><path d="m316.59 101.21h45.269c3.274 0 5.938 2.664 5.938 5.938v47.111c0 4.142 3.358 7.5 7.5 7.5s7.5-3.358 7.5-7.5v-47.111c0-11.545-9.393-20.938-20.938-20.938h-45.269c-4.142 0-7.5 3.358-7.5 7.5s3.358 7.5 7.5 7.5z"/><path d="m145.314 108.433h34.871c4.142 0 7.5-3.358 7.5-7.5s-3.358-7.5-7.5-7.5h-34.871c-7.453 0-13.517-6.064-13.517-13.517v-23.63c0-7.454 6.064-13.518 13.517-13.518h11.999c5.521 0 10.013-4.492 10.013-10.013v-7.401c0-2.696 2.194-4.89 4.89-4.89h68.365c2.696 0 4.89 2.194 4.89 4.89v7.401c0 5.521 4.492 10.013 10.013 10.013h11.999c7.453 0 13.517 6.064 13.517 13.518v23.63c0 7.453-6.064 13.517-13.517 13.517h-55.336c-4.142 0-7.5 3.358-7.5 7.5s3.358 7.5 7.5 7.5h55.336c15.725 0 28.517-12.792 28.517-28.517v-23.63c0-15.725-12.792-28.518-28.517-28.518h-7.012v-2.414c0-10.967-8.923-19.89-19.89-19.89h-68.365c-10.967 0-19.89 8.923-19.89 19.89v2.414h-7.012c-15.725 0-28.517 12.793-28.517 28.518v23.63c0 15.725 12.793 28.517 28.517 28.517z"/><path d="m237.682 61.108c0-4.142-3.358-7.5-7.5-7.5h-47.566c-4.142 0-7.5 3.358-7.5 7.5s3.358 7.5 7.5 7.5h47.566c4.142 0 7.5-3.358 7.5-7.5z"/><path d="m499.362 203.807c-19.495-30.366-58.856-41.759-91.554-26.498l-17.078 7.969c-.503.235-1.079.233-1.582 0l-17.077-7.969c-32.7-15.261-72.059-3.868-91.555 26.498-9.812 15.284-13.511 33.558-10.417 51.456 3.095 17.897 12.715 33.868 27.09 44.97l82.195 63.481c3.107 2.399 6.83 3.599 10.554 3.599s7.447-1.2 10.555-3.6l31.349-24.211c3.278-2.532 3.883-7.242 1.352-10.521-2.532-3.278-7.242-3.882-10.521-1.352l-31.348 24.211c-.816.63-1.956.631-2.771 0l-82.194-63.48c-3.225-2.491-6.135-5.299-8.725-8.355h31.455c3.372 0 6.33-2.25 7.229-5.501l8.445-30.537 23.479 65.108c1.068 2.962 3.873 4.941 7.021 4.956h.035c3.134 0 5.94-1.95 7.031-4.891l22.283-60.063 6.735 22.027c.964 3.153 3.875 5.307 7.172 5.307h66.536c-3.218 4.477-7.085 8.511-11.537 11.95l-25.342 19.571c-3.278 2.532-3.883 7.242-1.352 10.521 2.533 3.278 7.241 3.883 10.521 1.352l25.342-19.572c14.375-11.102 23.996-27.073 27.09-44.97 3.095-17.898-.604-36.171-10.416-51.456zm-75.292 57.604-11.6-37.935c-.941-3.076-3.738-5.21-6.953-5.304-3.229-.118-6.133 1.872-7.251 4.888l-22.868 61.64-24.523-68.002c-1.107-3.073-4.08-5.059-7.341-4.95-3.264.125-6.072 2.347-6.942 5.496l-13.209 47.763h-34.922c-1.631-3.922-2.843-8.04-3.58-12.3-2.454-14.189.479-28.678 8.259-40.796 15.456-24.077 46.663-33.108 72.588-21.009l17.076 7.969c4.534 2.115 9.736 2.116 14.269 0l17.078-7.969c25.924-12.099 57.131-3.067 72.588 21.009 7.779 12.118 10.712 26.606 8.259 40.796-.515 2.978-1.271 5.883-2.228 8.705h-68.7z"/><path d="m90.695 212.949h35.242c8.556 0 15.517-6.961 15.517-15.517v-38.861c0-8.556-6.961-15.517-15.517-15.517h-35.242c-8.556 0-15.516 6.961-15.516 15.517v38.861c0 8.556 6.96 15.517 15.516 15.517zm-.516-54.378c0-.285.231-.517.516-.517h35.242c.285 0 .517.232.517.517v38.861c0 .285-.232.517-.517.517h-35.242c-.285 0-.516-.232-.516-.517z"/><path d="m75.179 296.156c0 8.556 6.96 15.517 15.516 15.517h35.242c8.556 0 15.517-6.961 15.517-15.517v-38.861c0-8.556-6.961-15.516-15.517-15.516h-35.242c-8.556 0-15.516 6.96-15.516 15.516zm15-38.861c0-.285.231-.516.516-.516h35.242c.285 0 .517.231.517.516v38.861c0 .285-.232.517-.517.517h-35.242c-.285 0-.516-.232-.516-.517z"/><path d="m75.179 394.88c0 8.556 6.96 15.517 15.516 15.517h35.242c8.556 0 15.517-6.961 15.517-15.517v-38.861c0-8.556-6.961-15.516-15.517-15.516h-35.242c-8.556 0-15.516 6.96-15.516 15.516zm15-38.861c0-.285.231-.516.516-.516h35.242c.285 0 .517.231.517.516v38.861c0 .285-.232.517-.517.517h-35.242c-.285 0-.516-.232-.516-.517z"/><path d="m163.716 161.759h87.249c4.142 0 7.5-3.358 7.5-7.5s-3.358-7.5-7.5-7.5h-87.249c-4.142 0-7.5 3.358-7.5 7.5s3.358 7.5 7.5 7.5z"/><path d="m163.716 209.769h87.249c4.142 0 7.5-3.358 7.5-7.5s-3.358-7.5-7.5-7.5h-87.249c-4.142 0-7.5 3.358-7.5 7.5s3.358 7.5 7.5 7.5z"/><path d="m163.716 260.22h87.249c4.142 0 7.5-3.358 7.5-7.5s-3.358-7.5-7.5-7.5h-87.249c-4.142 0-7.5 3.358-7.5 7.5 0 4.143 3.358 7.5 7.5 7.5z"/><path d="m262.965 293.23h-99.249c-4.142 0-7.5 3.358-7.5 7.5s3.358 7.5 7.5 7.5h99.249c4.142 0 7.5-3.358 7.5-7.5s-3.358-7.5-7.5-7.5z"/><path d="m301.794 343.682h-138.078c-4.142 0-7.5 3.358-7.5 7.5s3.358 7.5 7.5 7.5h138.078c4.142 0 7.5-3.358 7.5-7.5s-3.358-7.5-7.5-7.5z"/><path d="m333.415 391.692h-169.699c-4.142 0-7.5 3.358-7.5 7.5s3.358 7.5 7.5 7.5h169.699c4.142 0 7.5-3.358 7.5-7.5s-3.358-7.5-7.5-7.5z"/></g></svg>